<?xml version="1.0" encoding="iso-8859-1"?>
<!-- Generator: Adobe Illustrator 16.0.0, SVG Export Plug-In . SVG Version: 6.00 Build 0)  -->
<!DOCTYPE svg PUBLIC "-//W3C//DTD SVG 1.1//EN" "http://www.w3.org/Graphics/SVG/1.1/DTD/svg11.dtd">
<svg version="1.1" id="Layer_1" xmlns="http://www.w3.org/2000/svg" xmlns:xlink="http://www.w3.org/1999/xlink" x="0px" y="0px"
	 width="27.7px" height="32px" viewBox="0 0 27.7 32" style="enable-background:new 0 0 27.7 32;" xml:space="preserve">
<g>
	<path d="M24.993,7.945c0-1.44,0-7.945,0-7.945h-1.068h-0.633h-1.07c0,0,0,6.505,0,7.945s-2.707,3.188-2.707,5.239
		s0,16.895,0,17.419c0,0.523,0.35,1.396,1.135,1.396c0.535,0,1.85,0,2.643,0c0.373,0,0.633,0,0.633,0c0.791,0,2.107,0,2.641,0
		c0.785,0,1.135-0.873,1.135-1.396c0-0.524,0-15.367,0-17.419S24.993,9.386,24.993,7.945z M22.82,10.278
		c-0.175,0.239-0.371,0.541-0.584,0.889c-0.215,0.349-0.419,0.756-0.627,1.197c-0.079,0.226-0.159,0.462-0.228,0.699
		c-0.002,0.251-0.082,0.436-0.047,0.751c0.021,0.584,0.043,1.198,0.066,1.834c0.043,1.272,0.051,2.63,0.061,3.986
		c-0.003,2.714-0.086,5.428-0.213,7.463c-0.055,1.018-0.146,1.866-0.189,2.46c-0.053,0.594-0.098,0.933-0.098,0.933
		s-0.044-0.339-0.097-0.933c-0.043-0.594-0.134-1.442-0.19-2.46c-0.127-2.035-0.209-4.749-0.212-7.463
		c0.011-1.356,0.019-2.714,0.061-3.986c0.022-0.636,0.046-1.25,0.067-1.834c-0.01-0.271,0.092-0.639,0.149-0.932
		c0.113-0.276,0.237-0.532,0.357-0.773c0.145-0.222,0.282-0.434,0.413-0.636c0.15-0.184,0.292-0.358,0.426-0.523
		c0.275-0.318,0.521-0.587,0.736-0.797c0.424-0.424,0.695-0.632,0.695-0.632S23.158,9.792,22.82,10.278z"/>
	<path d="M16.766,20.93c0-0.238-0.239-1.611-1.521-1.648c-0.418-0.007-0.761,0-0.761,0l-0.261-0.544h-0.202v-0.254h0.202v-0.47
		h-0.202v-0.351h0.179v-0.522h-0.179v-0.298h0.172l0.007-1.671c0,0,2.686-1.641,2.566-3.342c-0.119-1.699-2.745-1.104-2.745-1.104
		l-0.563-0.08c0-0.003,0-0.009,0-0.009l-0.031,0.005l-0.032-0.005c0,0,0,0.006,0,0.009l-0.563,0.08c0,0-2.625-0.596-2.745,1.104
		c-0.118,1.701,2.566,3.342,2.566,3.342l0.007,1.671h0.172v0.298h-0.179v0.522h0.179v0.351h-0.201v0.47h0.201v0.254h-0.201
		l-0.262,0.544c0,0-0.343-0.007-0.761,0c-1.282,0.037-1.521,1.41-1.521,1.648c-0.142,0.034-0.271,0.467,0,0.875
		c0.271,0.409,1.298,1.751,1.224,3.302c-0.074,1.552-1.163,2.178-1.224,4.207c-0.06,2.028,0.508,2.506,1.06,2.654
		c0.552,0.149,0.902-0.245,0.851-0.656c-0.054-0.411-0.12-0.925-0.12-0.925s1.334,0.251,1.55,0.06
		c0.215,0.191,1.549-0.06,1.549-0.06s-0.066,0.514-0.12,0.925c-0.052,0.411,0.299,0.806,0.851,0.656
		c0.552-0.148,1.119-0.626,1.06-2.654c-0.061-2.029-1.148-2.655-1.224-4.207c-0.074-1.551,0.952-2.893,1.224-3.302
		C17.037,21.396,16.907,20.964,16.766,20.93z M11.624,21.348c-0.265,0-0.478-0.227-0.478-0.508c0-0.279,0.213-0.506,0.478-0.506
		c0.264,0,0.477,0.227,0.477,0.506C12.101,21.121,11.888,21.348,11.624,21.348z M13.279,24.289h-0.19v0.357h0.19v0.41h-0.19v0.318
		h0.19v0.41h-0.19v0.356h0.19v0.41h-0.19v0.339h0.19v0.411h-0.19v0.105l-1.107,0.012c0,0,0.022-3.49,0.022-3.826
		c0-0.226,0.654-0.245,1.085-0.234v0.52h0.19V24.289z M13.427,13.98c-0.012-0.001-0.021-0.001-0.032-0.002c0,0,0,0.002,0,0.003
		c-1.54,0.089-1.911-0.792-1.701-1.732c0.197-0.878,1.52-0.31,1.733-0.477c0.213,0.167,1.536-0.401,1.732,0.477
		c0.21,0.94-0.161,1.821-1.701,1.732c0-0.001,0-0.002,0-0.002C13.447,13.979,13.438,13.979,13.427,13.98z M13.928,27.409v-0.354
		h-0.223v-0.41h0.223v-0.339h-0.223v-0.411h0.223v-0.356h-0.223v-0.411h0.223V24.81h-0.223v-0.411h0.223v-0.355h-0.223v-0.411h0.223
		v-0.276c0.415,0,0.921,0.039,0.921,0.237c0,0.336,0.022,3.826,0.022,3.826L13.928,27.409z M15.637,21.452
		c-0.264,0-0.478-0.227-0.478-0.508c0-0.279,0.214-0.507,0.478-0.507s0.478,0.228,0.478,0.507
		C16.114,21.226,15.9,21.452,15.637,21.452z"/>
	<rect x="1.95" y="26.091" transform="matrix(-0.0073 -1 1 -0.0073 -26.0505 33.6944)" width="3.5" height="7.375"/>
</g>
<g>
</g>
<g>
</g>
<g>
</g>
<g>
</g>
<g>
</g>
<g>
</g>
<g>
</g>
<g>
</g>
<g>
</g>
<g>
</g>
<g>
</g>
<g>
</g>
<g>
</g>
<g>
</g>
<g>
</g>
</svg>
