<?xml version="1.0" encoding="iso-8859-1"?>
<!-- Generator: Adobe Illustrator 16.0.0, SVG Export Plug-In . SVG Version: 6.00 Build 0)  -->
<!DOCTYPE svg PUBLIC "-//W3C//DTD SVG 1.1//EN" "http://www.w3.org/Graphics/SVG/1.1/DTD/svg11.dtd">
<svg version="1.1" id="Layer_1" xmlns="http://www.w3.org/2000/svg" xmlns:xlink="http://www.w3.org/1999/xlink" x="0px" y="0px"
	 width="32px" height="17.244px" viewBox="0 0 32 17.244" style="enable-background:new 0 0 32 17.244;" xml:space="preserve">
<path d="M30.415,0.067c-2.957-0.728-11.096,4.69-12.762,5.828c-2.66-0.654-6.245-0.706-7.294-0.706C8.63,5.189,0,5.328,0,8.079
	c0,0.235,0.067,0.45,0.185,0.649l1.486,7.01c0,0,3.086,1.394,8.688,1.502c5.603,0.109,9.194-1.989,9.194-1.989l1.031-6.619
	c0.084-0.172,0.133-0.355,0.133-0.553c0-0.692-0.547-1.22-1.393-1.62c1.518-1.647,9.625-4.656,11.415-4.091
	C32.202,2.747,32.743,0.5,30.415,0.067z M10.359,6.813c4.891,0,7.824,0.765,8.599,1.266c-0.774,0.5-3.708,1.265-8.599,1.265
	c-4.892,0-7.824-0.765-8.599-1.265C2.535,7.578,5.468,6.813,10.359,6.813z"/>
<g>
</g>
<g>
</g>
<g>
</g>
<g>
</g>
<g>
</g>
<g>
</g>
<g>
</g>
<g>
</g>
<g>
</g>
<g>
</g>
<g>
</g>
<g>
</g>
<g>
</g>
<g>
</g>
<g>
</g>
</svg>
