<?xml version="1.0" encoding="iso-8859-1"?>
<!-- Generator: Adobe Illustrator 16.0.0, SVG Export Plug-In . SVG Version: 6.00 Build 0)  -->
<!DOCTYPE svg PUBLIC "-//W3C//DTD SVG 1.1//EN" "http://www.w3.org/Graphics/SVG/1.1/DTD/svg11.dtd">
<svg version="1.1" id="Layer_1" xmlns="http://www.w3.org/2000/svg" xmlns:xlink="http://www.w3.org/1999/xlink" x="0px" y="0px"
	 width="32px" height="17.306px" viewBox="0 0 32 17.306" style="enable-background:new 0 0 32 17.306;" xml:space="preserve">
<g>
	<path d="M28.005,1.669c-0.699,0.246-1.646,1.209-2.062,1.659c0-1.9,0-3.278,0-3.278L16.48,0.004V0l-0.481,0.002L15.52,0v0.004
		L6.057,0.05c0,0,0,1.378,0,3.277C5.64,2.877,4.693,1.915,3.995,1.669c-0.92-0.325-3.995,0-3.995,0v1.244
		c0,0,3.021-0.106,3.671,0.271c0.65,0.378,1.353,3.572,1.894,3.572c0.12,0,0.295,0,0.492,0c0,3.439,0,7.03,0,7.613
		c0,1.164,1.112,2.936,3.238,2.936c0.435,0,0.997,0,1.608,0c0-1.687,0-3.326,0-3.539c0.353-0.954,0.682-2.609,0.183-3.31
		c-0.912-0.276-1.959-1.518-1.958-3.256c0-1.728,0.934-3.313,2.592-3.34c0-0.002,0-0.003,0-0.003c0.008,0.001,0.034,0,0.042,0.001
		c1.659,0.028,2.593,1.614,2.593,3.342c0,1.738-1.046,2.979-1.959,3.256c-0.499,0.7-0.169,2.355,0.183,3.31c0,0.213,0,1.853,0,3.539
		c1.105,0,2.195,0,2.94,0c0.395,0,0.684,0,0.837,0c0-1.669,0-3.295-0.001-3.506c0-0.404,1.011-2.109-0.47-3.779
		c-0.449-0.36-0.736-0.915-0.736-1.534c0-0.057,0.012-0.209,0.012-0.209l0.5-4.019h0.412L15.921,9.01h0.531l0-4.75l0.437-0.001
		l0,4.751h0.448V4.26l0.397-0.001v4.72l0.542,0.002l-0.135-4.722h0.451l0.488,4.238c0,0,0,0.089-0.002,0.125
		c-0.034,0.511-0.264,0.966-0.612,1.298c-0.002,0.001-0.005,0.005-0.007,0.006c-1.427,1.458-0.573,3.419-0.571,3.889
		c0,0.242,0,1.846,0,3.491c0.893,0,1.913,0,2.849,0c-0.004-0.563-0.006-0.999-0.006-1.121c0.121-0.221,0.792-1.963-0.801-2.399
		c0-8.678,2.073-9.847,2.073-9.847l0.254,0.001c0,0,0.015,11.14,0.013,11.603c0,0.175,0.001,0.896,0.001,1.764
		c0.15,0,0.306,0,0.436,0c2.125,0,3.238-1.771,3.238-2.936c0-0.583,0-4.174,0-7.613c0.196,0,0.372,0,0.492,0
		c0.541,0,1.243-3.194,1.894-3.572C28.979,2.807,32,2.913,32,2.913V1.669C32,1.669,28.925,1.344,28.005,1.669z"/>
	<path d="M10.204,5.893c0.006-0.121,0.016-0.195,0.016-0.195s-0.048,0.055-0.106,0.171c-0.06,0.115-0.133,0.282-0.196,0.49
		C9.853,6.566,9.794,6.815,9.764,7.088C9.732,7.362,9.722,7.659,9.779,7.971C9.811,8.13,9.857,8.267,9.913,8.409
		c0.059,0.136,0.121,0.264,0.188,0.384c0.137,0.238,0.283,0.447,0.423,0.614c0.139,0.168,0.271,0.296,0.374,0.375
		c0.102,0.083,0.18,0.101,0.18,0.097c-0.004,0.002-0.058-0.043-0.115-0.152c-0.062-0.106-0.139-0.265-0.227-0.455
		c-0.086-0.188-0.187-0.41-0.281-0.649c-0.049-0.117-0.095-0.239-0.132-0.366c-0.041-0.118-0.082-0.251-0.097-0.369
		c-0.077-0.502-0.043-1.067-0.039-1.482C10.194,6.193,10.2,6.017,10.204,5.893z"/>
</g>
<g>
</g>
<g>
</g>
<g>
</g>
<g>
</g>
<g>
</g>
<g>
</g>
<g>
</g>
<g>
</g>
<g>
</g>
<g>
</g>
<g>
</g>
<g>
</g>
<g>
</g>
<g>
</g>
<g>
</g>
</svg>
