<?xml version="1.0" encoding="iso-8859-1"?>
<!-- Generator: Adobe Illustrator 16.0.0, SVG Export Plug-In . SVG Version: 6.00 Build 0)  -->
<!DOCTYPE svg PUBLIC "-//W3C//DTD SVG 1.1//EN" "http://www.w3.org/Graphics/SVG/1.1/DTD/svg11.dtd">
<svg version="1.1" id="Layer_1" xmlns="http://www.w3.org/2000/svg" xmlns:xlink="http://www.w3.org/1999/xlink" x="0px" y="0px"
	 width="28px" height="15.788px" viewBox="0 0 28 15.788" style="enable-background:new 0 0 28 15.788;" xml:space="preserve">
<g>
	<path d="M20.958,3.491c0-0.493,0.067-1.505-1.26-1.505c-0.361,0-1.452,0-2.702,0c-0.443-0.341-0.961-0.604-1.751-0.742
		c-0.008-0.243-0.065-0.585-0.293-0.854C14.73,0.131,14.409,0,13.996,0c-0.414,0-0.733,0.132-0.949,0.392
		C12.823,0.659,12.773,1,12.77,1.244c-0.789,0.138-1.598,0.401-2.04,0.742c-1.563,0-2.694,0-3.046,0
		c-1.088,0-0.906,1.097-0.906,1.505C7.271,3.491,20.602,3.491,20.958,3.491z M13.47,0.744c0.108-0.13,0.28-0.193,0.526-0.193
		c0.247,0,0.422,0.063,0.535,0.196c0.1,0.116,0.142,0.278,0.156,0.424c-0.221-0.02-0.447-0.033-0.68-0.033
		c-0.234,0-0.461,0.014-0.684,0.034C13.336,1.025,13.372,0.862,13.47,0.744z"/>
	<path d="M25.39,7.402c-0.426,0.15-0.988,0.704-1.283,1.017c-0.397-1.8-1.817-3.027-2.653-3.609h0.432V4.022H6.213V4.81h0.511
		c-0.859,0.6-2.34,1.879-2.688,3.764C3.835,8.349,3.123,7.583,2.61,7.402c-0.602-0.212-2.61,0-2.61,0v0.813
		c0,0,1.974-0.069,2.398,0.179c0.425,0.246,0.884,2.333,1.237,2.333c0.123,0,0.334,0,0.556,0c0.829,2.519,3.687,4.275,3.687,4.275
		H7.296v0.786h13.488v-0.786H20.3c0,0,2.856-1.757,3.687-4.275c0.152,0,0.288,0,0.378,0c0.354,0,0.813-2.087,1.237-2.333
		C26.026,8.146,28,8.215,28,8.215V7.402C28,7.402,25.991,7.19,25.39,7.402z M8.246,13.396c-0.409-0.269-0.859-0.643-1.25-1.145
		c-0.189-0.254-0.383-0.528-0.523-0.84c-0.138-0.299-0.261-0.669-0.33-1.017c-0.017-0.172-0.038-0.274-0.05-0.501l0.016-0.506
		C6.098,9.052,6.168,8.729,6.252,8.421c0.054-0.314,0.182-0.595,0.306-0.855c0.101-0.271,0.268-0.49,0.404-0.696
		C7.087,6.655,7.263,6.5,7.391,6.351c0.131-0.149,0.278-0.252,0.382-0.345c0.229-0.175,0.372-0.245,0.372-0.245
		S7.777,6.3,7.465,7.141C7.317,7.562,7.161,8.053,7.114,8.59C7.097,8.723,7.08,8.857,7.063,8.994l0.009,0.418v0.423
		c0.004,0.083,0.042,0.288,0.061,0.427c0.051,0.266,0.115,0.493,0.222,0.759c0.112,0.248,0.222,0.499,0.363,0.729
		c0.278,0.461,0.604,0.869,0.903,1.212c0.606,0.678,1.088,1.112,1.088,1.112S9.065,13.939,8.246,13.396z"/>
</g>
<g>
</g>
<g>
</g>
<g>
</g>
<g>
</g>
<g>
</g>
<g>
</g>
<g>
</g>
<g>
</g>
<g>
</g>
<g>
</g>
<g>
</g>
<g>
</g>
<g>
</g>
<g>
</g>
<g>
</g>
</svg>
