<?xml version="1.0" encoding="iso-8859-1"?>
<!-- Generator: Adobe Illustrator 16.0.0, SVG Export Plug-In . SVG Version: 6.00 Build 0)  -->
<!DOCTYPE svg PUBLIC "-//W3C//DTD SVG 1.1//EN" "http://www.w3.org/Graphics/SVG/1.1/DTD/svg11.dtd">
<svg version="1.1" id="Layer_1" xmlns="http://www.w3.org/2000/svg" xmlns:xlink="http://www.w3.org/1999/xlink" x="0px" y="0px"
	 width="32px" height="13.369px" viewBox="0 0 32 13.369" style="enable-background:new 0 0 32 13.369;" xml:space="preserve">
<g>
	<path d="M31.097,3.002C30.31,2.915,21.942,4.23,20.487,4.54s-4.341,1.177-4.341,1.177l0.003,0.142l-1.118,0.075
		c-0.015-0.111-0.028-0.215-0.043-0.297h0.189V4.863H0v0.773h0.202c-0.09,0.517-0.188,1.689-0.128,2.78
		c0.072,1.361,0.576,4.038,0.638,4.368v0.584h13.768V12.78c0.064-0.34,0.563-3.006,0.638-4.363c0.031-0.6,0.016-1.219-0.019-1.745
		l-0.006-0.066l1.071-0.072l0.005,0.196c0,0,2.789-0.744,4.503-0.893C22.387,5.688,30,5.238,31.123,5.161
		C32.246,5.083,32.347,3.141,31.097,3.002z M1.964,11.773C1.89,11.617,1.8,11.447,1.74,11.258c-0.066-0.189-0.149-0.383-0.191-0.603
		c-0.045-0.213-0.123-0.449-0.137-0.664C1.39,9.764,1.35,9.569,1.341,9.307c0-0.232,0.001-0.466,0.001-0.694
		c0.024-0.228,0.048-0.451,0.07-0.668c0.071-0.429,0.169-0.821,0.283-1.149c0.224-0.657,0.498-1.038,0.498-1.038
		S2.155,6.205,2.098,6.879C2.077,7.211,2.059,7.594,2.043,8.001C2.041,8.41,2.038,8.841,2.063,9.272
		C2.067,9.458,2.096,9.709,2.111,9.92c0.015,0.228,0.05,0.413,0.069,0.616c0.053,0.395,0.119,0.775,0.182,1.099
		c0.129,0.646,0.25,1.095,0.25,1.095S2.271,12.401,1.964,11.773z"/>
	<path d="M14.953,4.464c0-0.729,0.172-1.509-1.783-1.509c-0.397,0-1.051,0-1.841,0c-0.539-0.267-1.19-0.476-1.918-0.613
		C9.427,1.928,9.378,1.17,8.897,0.613C8.654,0.334,8.204,0,7.43,0C6.653,0,6.207,0.335,5.969,0.616
		c-0.47,0.555-0.506,1.309-0.483,1.726C4.757,2.479,4.104,2.688,3.564,2.955c-0.862,0-1.553,0-1.913,0
		c-1.604,0-1.41,0.907-1.41,1.509C0.968,4.464,14.427,4.464,14.953,4.464z M6.8,1.32c0.048-0.058,0.196-0.232,0.63-0.232
		c0.294,0,0.504,0.078,0.643,0.235c0.197,0.228,0.246,0.595,0.25,0.868C8.037,2.169,7.745,2.156,7.447,2.156
		c-0.299,0-0.592,0.013-0.877,0.035C6.568,1.925,6.607,1.547,6.8,1.32z"/>
</g>
<g>
</g>
<g>
</g>
<g>
</g>
<g>
</g>
<g>
</g>
<g>
</g>
<g>
</g>
<g>
</g>
<g>
</g>
<g>
</g>
<g>
</g>
<g>
</g>
<g>
</g>
<g>
</g>
<g>
</g>
</svg>
