<?xml version="1.0" encoding="iso-8859-1"?>
<!-- Generator: Adobe Illustrator 16.0.0, SVG Export Plug-In . SVG Version: 6.00 Build 0)  -->
<!DOCTYPE svg PUBLIC "-//W3C//DTD SVG 1.1//EN" "http://www.w3.org/Graphics/SVG/1.1/DTD/svg11.dtd">
<svg version="1.1" id="Layer_1" xmlns="http://www.w3.org/2000/svg" xmlns:xlink="http://www.w3.org/1999/xlink" x="0px" y="0px"
	 width="32px" height="17.306px" viewBox="0 0 32 17.306" style="enable-background:new 0 0 32 17.306;" xml:space="preserve">
<path d="M28.005,1.669c-0.699,0.246-1.646,1.209-2.062,1.659c0-1.9,0-3.278,0-3.278L16.48,0.004V0l-0.481,0.002L15.52,0v0.004
	L6.057,0.05c0,0,0,1.378,0,3.277C5.64,2.877,4.693,1.915,3.995,1.669c-0.92-0.325-3.995,0-3.995,0v1.244
	c0,0,3.021-0.106,3.671,0.271c0.65,0.378,1.353,3.572,1.894,3.572c0.12,0,0.295,0,0.492,0c0,3.439,0,7.03,0,7.613
	c0,1.164,1.112,2.936,3.238,2.936c1.55,0,4.653,0,6.225,0c0.582,0,0.961,0,0.961,0c1.57,0,4.675,0,6.225,0
	c2.125,0,3.238-1.771,3.238-2.936c0-0.583,0-4.174,0-7.613c0.196,0,0.372,0,0.492,0c0.541,0,1.243-3.194,1.894-3.572
	C28.979,2.807,32,2.913,32,2.913V1.669C32,1.669,28.925,1.344,28.005,1.669z M10.114,15.637c-0.412-0.057-1.082-0.165-1.675-0.807
	c-0.294-0.29-0.487-0.871-0.507-1.293c-0.037-0.401-0.06-0.825-0.078-1.264c-0.054-0.876-0.056-1.811-0.064-2.745
	c0.003-1.869,0.121-3.739,0.281-5.141c0.153-1.402,0.366-2.337,0.366-2.337S8.65,2.985,8.804,4.388
	c0.16,1.401,0.278,3.271,0.281,5.141c-0.009,0.935-0.011,1.869-0.064,2.745c-0.019,0.438-0.041,0.862-0.078,1.264
	c-0.023,0.383,0.012,0.561,0.135,0.836c0.262,0.493,0.771,0.815,1.118,1.001c0.355,0.19,0.586,0.271,0.586,0.271
	S10.541,15.687,10.114,15.637z"/>
<g>
</g>
<g>
</g>
<g>
</g>
<g>
</g>
<g>
</g>
<g>
</g>
<g>
</g>
<g>
</g>
<g>
</g>
<g>
</g>
<g>
</g>
<g>
</g>
<g>
</g>
<g>
</g>
<g>
</g>
</svg>
