<?xml version="1.0" encoding="iso-8859-1"?>
<!-- Generator: Adobe Illustrator 16.0.0, SVG Export Plug-In . SVG Version: 6.00 Build 0)  -->
<!DOCTYPE svg PUBLIC "-//W3C//DTD SVG 1.1//EN" "http://www.w3.org/Graphics/SVG/1.1/DTD/svg11.dtd">
<svg version="1.1" id="Layer_1" xmlns="http://www.w3.org/2000/svg" xmlns:xlink="http://www.w3.org/1999/xlink" x="0px" y="0px"
	 width="32px" height="11.691px" viewBox="0 0 32 11.691" style="enable-background:new 0 0 32 11.691;" xml:space="preserve">
<g>
	<path d="M27.481,4.883c0-0.816,0.194-1.69-1.997-1.69c-0.659,0-2.511,0-4.823,0c-0.634-0.313-1.403-0.557-2.266-0.71
		c0.015-0.448-0.041-1.249-0.549-1.836C17.593,0.352,17.115,0,16.293,0s-1.294,0.353-1.546,0.649
		c-0.495,0.585-0.537,1.38-0.514,1.833c-0.865,0.152-1.636,0.396-2.27,0.71c-2.85,0-5.188,0-5.824,0
		c-1.797,0-1.579,1.016-1.579,1.69C5.374,4.883,26.893,4.883,27.481,4.883z M15.498,1.281c0.172-0.202,0.432-0.3,0.795-0.3
		c0.366,0,0.631,0.1,0.81,0.305c0.247,0.283,0.309,0.736,0.313,1.064c-0.359-0.031-0.726-0.053-1.103-0.053
		c-0.378,0-0.743,0.021-1.103,0.053C15.207,2.021,15.258,1.564,15.498,1.281z"/>
	<path d="M29.355,5.749c-0.537,0.189-1.294,1.018-1.468,1.212l-0.013-0.203c-0.045-0.337-0.116-0.626-0.186-0.804h0.299V5.409H4.031
		v0.545H4.35C4.265,6.172,4.182,6.561,4.145,6.997c-0.029-0.034-0.899-1.036-1.5-1.248C2.035,5.534,0,5.749,0,5.749v0.823
		c0,0,2-0.069,2.43,0.181c0.431,0.25,0.896,2.364,1.253,2.364c0.163,0,0.473,0,0.765,0c0.229,0.708,0.517,1.427,0.646,1.74H4.553
		v0.834h0.592h21.73h0.61v-0.834h-0.54c0.131-0.317,0.419-1.036,0.646-1.74c0.279,0,0.569,0,0.726,0
		c0.356,0,0.822-2.114,1.253-2.364C30,6.503,32,6.572,32,6.572V5.749C32,5.749,29.965,5.534,29.355,5.749z M5.778,7.666
		c0.021-0.3,0.121-0.568,0.196-0.792c0.17-0.446,0.403-0.677,0.403-0.677S6.34,6.512,6.322,6.95
		C6.306,7.386,6.334,7.964,6.411,8.498c0.047,0.309,0.111,0.577,0.168,0.826c0.067,0.26,0.129,0.509,0.205,0.717
		c0.075,0.207,0.124,0.394,0.176,0.516c0.045,0.128,0.071,0.2,0.071,0.2s-0.264-0.18-0.548-0.56C6.353,10.004,6.2,9.771,6.073,9.502
		C5.952,9.215,5.858,8.903,5.809,8.616C5.767,8.439,5.777,8.29,5.762,8.129C5.741,7.972,5.769,7.815,5.778,7.666z"/>
</g>
<g>
</g>
<g>
</g>
<g>
</g>
<g>
</g>
<g>
</g>
<g>
</g>
<g>
</g>
<g>
</g>
<g>
</g>
<g>
</g>
<g>
</g>
<g>
</g>
<g>
</g>
<g>
</g>
<g>
</g>
</svg>
