<?xml version="1.0" encoding="iso-8859-1"?>
<!-- Generator: Adobe Illustrator 16.0.0, SVG Export Plug-In . SVG Version: 6.00 Build 0)  -->
<!DOCTYPE svg PUBLIC "-//W3C//DTD SVG 1.1//EN" "http://www.w3.org/Graphics/SVG/1.1/DTD/svg11.dtd">
<svg version="1.1" id="Layer_1" xmlns="http://www.w3.org/2000/svg" xmlns:xlink="http://www.w3.org/1999/xlink" x="0px" y="0px"
	 width="32.008px" height="5.987px" viewBox="0 0 32.008 5.987" style="enable-background:new 0 0 32.008 5.987;"
	 xml:space="preserve">
<path d="M31.399,0.003c-0.529-0.067-6.154,0.938-7.133,1.174s-2.92,0.898-2.92,0.898l0.003,0.108l-0.893,0.068
	c0.011-0.27-0.067-0.548-0.276-0.827c-1.083,0-9.946,0-9.946,0s-8.864,0-9.948,0c-1.145,1.527,1.516,3.797,1.516,3.797H1.399v0.766
	h18.055V5.222h-0.957c0,0,1.402-1.49,1.829-2.443l1.033-0.08l0.003,0.15c0,0,1.875-0.568,3.027-0.682
	c1.153-0.113,6.273-0.457,7.028-0.517C32.173,1.592,32.241,0.108,31.399,0.003z M2.951,4.722C2.587,4.574,2.139,4.306,1.759,3.933
	C1.39,3.563,1.061,3.063,1.067,2.574C1.054,2.351,1.188,2.11,1.263,2.059c0.09-0.074,0.149-0.112,0.149-0.112
	s-0.003,0.07-0.023,0.185c-0.028,0.132,0.032,0.223,0.1,0.364c0.02,0.063,0.1,0.134,0.137,0.206c0.06,0.07,0.123,0.146,0.188,0.223
	c0.149,0.149,0.298,0.318,0.474,0.478c0.331,0.331,0.675,0.678,0.917,0.971c0.239,0.297,0.39,0.527,0.39,0.527
	S3.319,4.865,2.951,4.722z"/>
<g>
</g>
<g>
</g>
<g>
</g>
<g>
</g>
<g>
</g>
<g>
</g>
<g>
</g>
<g>
</g>
<g>
</g>
<g>
</g>
<g>
</g>
<g>
</g>
<g>
</g>
<g>
</g>
<g>
</g>
</svg>
