<?xml version="1.0" encoding="iso-8859-1"?>
<!-- Generator: Adobe Illustrator 16.0.0, SVG Export Plug-In . SVG Version: 6.00 Build 0)  -->
<!DOCTYPE svg PUBLIC "-//W3C//DTD SVG 1.1//EN" "http://www.w3.org/Graphics/SVG/1.1/DTD/svg11.dtd">
<svg version="1.1" id="Layer_1" xmlns="http://www.w3.org/2000/svg" xmlns:xlink="http://www.w3.org/1999/xlink" x="0px" y="0px"
	 width="32px" height="12.699px" viewBox="0 0 32 12.699" style="enable-background:new 0 0 32 12.699;" xml:space="preserve">
<path d="M28.005,1.438c-0.704,0.247-1.658,1.221-2.069,1.666c0-1.775,0-3.053,0-3.053l-9.463-0.046V0l-0.481,0.003L15.512,0v0.005
	L6.049,0.051c0,0,0,1.269,0,3.035C5.628,2.633,4.689,1.682,3.995,1.438c-0.92-0.326-3.995,0-3.995,0v1.243
	c0,0,3.021-0.106,3.671,0.272c0.65,0.377,1.353,3.571,1.894,3.571c0.119,0,0.29,0,0.484,0c0,3.267,0,2.66,0,3.239
	c0,1.164,1.112,2.936,3.238,2.936c1.55,0,4.653,0,6.225,0c0.583,0,0.961,0,0.961,0c1.57,0,4.675,0,6.225,0
	c2.125,0,3.238-1.771,3.238-2.936c0-0.579,0,0.027,0-3.239c0.2,0,0.378,0,0.5,0c0.541,0,1.243-3.194,1.894-3.571
	C28.979,2.574,32,2.681,32,2.681V1.438C32,1.438,28.925,1.111,28.005,1.438z M9.988,11.417c-0.34-0.023-0.844-0.147-1.34-0.534
	c-0.243-0.193-0.489-0.457-0.649-0.805C7.826,9.731,7.77,9.269,7.77,8.958c-0.043-0.696-0.055-1.44-0.063-2.185
	c0.001-1.487,0.083-2.976,0.211-4.093c0.119-1.117,0.288-1.862,0.288-1.862s0.169,0.742,0.288,1.856
	c0.128,1.115,0.21,2.602,0.211,4.089C8.695,7.508,8.684,8.252,8.641,8.95C8.62,9.334,8.604,9.559,8.681,9.807
	c0.075,0.248,0.2,0.48,0.358,0.672c0.318,0.384,0.706,0.629,0.994,0.75c0.291,0.127,0.484,0.152,0.484,0.152
	S10.334,11.439,9.988,11.417z"/>
<g>
</g>
<g>
</g>
<g>
</g>
<g>
</g>
<g>
</g>
<g>
</g>
<g>
</g>
<g>
</g>
<g>
</g>
<g>
</g>
<g>
</g>
<g>
</g>
<g>
</g>
<g>
</g>
<g>
</g>
</svg>
