<?xml version="1.0" encoding="iso-8859-1"?>
<!-- Generator: Adobe Illustrator 16.0.0, SVG Export Plug-In . SVG Version: 6.00 Build 0)  -->
<!DOCTYPE svg PUBLIC "-//W3C//DTD SVG 1.1//EN" "http://www.w3.org/Graphics/SVG/1.1/DTD/svg11.dtd">
<svg version="1.1" id="Layer_1" xmlns="http://www.w3.org/2000/svg" xmlns:xlink="http://www.w3.org/1999/xlink" x="0px" y="0px"
	 width="32.001px" height="15.936px" viewBox="0 0 32.001 15.936" style="enable-background:new 0 0 32.001 15.936;"
	 xml:space="preserve">
<path d="M31.79,0.035c-2.223,0-12.806-0.027-15.48-0.034V0c0,0-0.111,0-0.309,0.001C15.803,0,15.692,0,15.692,0v0.001
	C13.017,0.008,2.434,0.035,0.211,0.035c-1.405,5.83,4.539,12.65,7.853,13.744v2.156H23.32v-2.018
	C26.434,13.591,33.288,6.252,31.79,0.035z M8.305,10.828c-0.527-0.327-1.101-0.764-1.693-1.265c-0.583-0.51-1.168-1.103-1.696-1.752
	C4.665,7.474,4.392,7.157,4.18,6.793C3.954,6.443,3.742,6.092,3.58,5.719C3.392,5.366,3.266,4.99,3.164,4.629
	C3.031,4.285,2.996,3.918,2.959,3.593c-0.064-0.312-0.018-0.647,0.01-0.916c0.015-0.135,0.025-0.259,0.044-0.369
	c0.04-0.102,0.076-0.195,0.108-0.279c0.136-0.336,0.228-0.525,0.228-0.525s0.033,0.209,0.065,0.57
	c0.008,0.09,0.017,0.189,0.026,0.298C3.471,2.469,3.504,2.574,3.54,2.687C3.611,2.907,3.658,3.13,3.793,3.395
	c0.223,0.517,0.526,1.095,0.943,1.675c0.186,0.3,0.414,0.593,0.638,0.895c0.213,0.308,0.473,0.6,0.707,0.904
	C6.566,7.47,7.075,8.063,7.555,8.625c0.482,0.569,0.933,1.101,1.318,1.556c0.777,0.921,1.27,1.604,1.27,1.604
	S9.343,11.503,8.305,10.828z"/>
<g>
</g>
<g>
</g>
<g>
</g>
<g>
</g>
<g>
</g>
<g>
</g>
<g>
</g>
<g>
</g>
<g>
</g>
<g>
</g>
<g>
</g>
<g>
</g>
<g>
</g>
<g>
</g>
<g>
</g>
</svg>
