<?xml version="1.0" encoding="iso-8859-1"?>
<!-- Generator: Adobe Illustrator 16.0.0, SVG Export Plug-In . SVG Version: 6.00 Build 0)  -->
<!DOCTYPE svg PUBLIC "-//W3C//DTD SVG 1.1//EN" "http://www.w3.org/Graphics/SVG/1.1/DTD/svg11.dtd">
<svg version="1.1" id="Layer_1" xmlns="http://www.w3.org/2000/svg" xmlns:xlink="http://www.w3.org/1999/xlink" x="0px" y="0px"
	 width="32px" height="14.05px" viewBox="0 0 32 14.05" style="enable-background:new 0 0 32 14.05;" xml:space="preserve">
<path d="M29.402,2.952c-0.422,0.149-0.98,0.696-1.274,1.008c0.226-0.997,0.378-1.882,0.463-2.429h0.896V0H2.512v1.531h0.897
	c0.085,0.547,0.237,1.433,0.463,2.43C3.578,3.649,3.02,3.102,2.597,2.952C1.999,2.74,0,2.952,0,2.952v0.809
	c0,0,1.964-0.069,2.386,0.177C2.809,4.183,3.266,6.26,3.617,6.26c0.183,0,0.557,0,0.873,0c0.38,1.176,0.86,2.292,1.453,3.033
	c1.575,1.968,3.851,3.593,4.514,4.046v0.711h11.085v-0.711c0.661-0.451,2.938-2.076,4.515-4.046
	c0.593-0.741,1.073-1.857,1.453-3.033c0.315,0,0.689,0,0.873,0c0.351,0,0.808-2.077,1.23-2.322C30.035,3.691,32,3.761,32,3.761
	V2.952C32,2.952,30,2.74,29.402,2.952z M16.016,12.888c-0.223-0.058-0.39-0.25-0.39-0.491c0-0.283,0.23-0.514,0.515-0.514
	s0.516,0.23,0.516,0.514c0,0.241-0.168,0.434-0.39,0.491H16.016z M14.635,10.589c-0.284,0-0.516-0.23-0.516-0.515
	s0.231-0.516,0.516-0.516s0.515,0.231,0.515,0.516S14.919,10.589,14.635,10.589z M15.149,11.514c0,0.285-0.23,0.515-0.516,0.515
	c-0.283,0-0.515-0.229-0.515-0.515c0-0.283,0.231-0.515,0.515-0.515C14.919,10.999,15.149,11.23,15.149,11.514z M14.563,9.171
	c-0.283,0-0.515-0.23-0.515-0.515s0.231-0.516,0.515-0.516c0.285,0,0.516,0.231,0.516,0.516S14.849,9.171,14.563,9.171z
	 M14.193,6.392c-0.283,0-0.515-0.231-0.515-0.517c0-0.283,0.231-0.514,0.515-0.514c0.285,0,0.515,0.23,0.515,0.514
	C14.708,6.16,14.479,6.392,14.193,6.392z M13.778,9.452c0,0.286-0.23,0.517-0.516,0.517c-0.283,0-0.514-0.23-0.514-0.517
	c0-0.283,0.23-0.514,0.514-0.514C13.548,8.938,13.778,9.169,13.778,9.452z M13.779,10.861c0,0.285-0.23,0.517-0.516,0.517
	c-0.283,0-0.515-0.231-0.515-0.517c0-0.283,0.231-0.514,0.515-0.514C13.549,10.348,13.779,10.578,13.779,10.861z M12.927,6.149
	c0.283,0,0.516,0.231,0.516,0.515c0,0.285-0.232,0.516-0.516,0.516c-0.285,0-0.515-0.23-0.515-0.516
	C12.412,6.381,12.642,6.149,12.927,6.149z M12.413,5.255c0-0.283,0.229-0.514,0.515-0.514c0.283,0,0.515,0.23,0.515,0.514
	c0,0.285-0.231,0.516-0.515,0.516C12.643,5.771,12.413,5.54,12.413,5.255z M12.512,10.073c0,0.285-0.23,0.516-0.514,0.516
	c-0.286,0-0.516-0.23-0.516-0.516c0-0.283,0.229-0.515,0.516-0.515C12.281,9.559,12.512,9.79,12.512,10.073z M11.557,5.361
	c0.284,0,0.515,0.23,0.515,0.515s-0.23,0.516-0.515,0.516c-0.285,0-0.516-0.231-0.516-0.516S11.271,5.361,11.557,5.361z
	 M11.112,4.458c0-0.284,0.229-0.515,0.515-0.515c0.283,0,0.515,0.23,0.515,0.515s-0.231,0.516-0.515,0.516
	C11.342,4.974,11.112,4.742,11.112,4.458z M11.557,6.801c0.284,0,0.515,0.231,0.515,0.516c0,0.285-0.23,0.515-0.515,0.515
	c-0.285,0-0.516-0.229-0.516-0.515C11.041,7.032,11.271,6.801,11.557,6.801z M15.863,8.668c0.286,0,0.516,0.23,0.516,0.515
	s-0.229,0.516-0.516,0.516c-0.283,0-0.515-0.231-0.515-0.516S15.58,8.668,15.863,8.668z M15.493,7.7c0-0.284,0.23-0.515,0.516-0.515
	c0.284,0,0.515,0.23,0.515,0.515s-0.23,0.516-0.515,0.516C15.724,8.216,15.493,7.984,15.493,7.7z M16.523,10.716
	c0,0.285-0.23,0.516-0.516,0.516c-0.284,0-0.515-0.23-0.515-0.516c0-0.284,0.23-0.515,0.515-0.515
	C16.293,10.201,16.523,10.432,16.523,10.716z M17.436,7.995c0.283,0,0.515,0.23,0.515,0.515s-0.231,0.515-0.515,0.515
	c-0.285,0-0.516-0.23-0.516-0.515S17.15,7.995,17.436,7.995z M17.074,5.796c0-0.284,0.229-0.515,0.515-0.515
	c0.283,0,0.514,0.23,0.514,0.515c0,0.285-0.23,0.516-0.514,0.516C17.304,6.312,17.074,6.081,17.074,5.796z M17.364,9.413
	c0.284,0,0.516,0.23,0.516,0.515s-0.231,0.515-0.516,0.515s-0.515-0.23-0.515-0.515S17.08,9.413,17.364,9.413z M17.365,10.853
	c0.283,0,0.515,0.231,0.515,0.515c0,0.285-0.231,0.516-0.515,0.516c-0.285,0-0.516-0.23-0.516-0.516
	C16.85,11.084,17.08,10.853,17.365,10.853z M18.855,6.069c0.285,0,0.515,0.231,0.515,0.515c0,0.285-0.229,0.516-0.515,0.516
	c-0.284,0-0.516-0.23-0.516-0.516C18.34,6.301,18.571,6.069,18.855,6.069z M18.34,5.175c0-0.283,0.23-0.514,0.515-0.514
	c0.285,0,0.515,0.23,0.515,0.514c0,0.285-0.229,0.516-0.515,0.516C18.57,5.69,18.34,5.46,18.34,5.175z M18.736,8.792
	c0.283,0,0.514,0.23,0.514,0.515c0,0.285-0.23,0.516-0.514,0.516c-0.285,0-0.516-0.23-0.516-0.516
	C18.221,9.022,18.451,8.792,18.736,8.792z M18.735,10.201c0.283,0,0.515,0.23,0.515,0.514c0,0.286-0.231,0.517-0.515,0.517
	c-0.285,0-0.516-0.23-0.516-0.517C18.22,10.432,18.45,10.201,18.735,10.201z M20.226,6.312c-0.284,0-0.515-0.23-0.515-0.516
	c0-0.284,0.23-0.515,0.515-0.515s0.516,0.23,0.516,0.515C20.741,6.081,20.51,6.312,20.226,6.312z M20.741,7.236
	c0,0.285-0.231,0.515-0.517,0.515c-0.283,0-0.514-0.229-0.514-0.515c0-0.283,0.23-0.516,0.514-0.516
	C20.51,6.721,20.741,6.953,20.741,7.236z M20.155,4.894c-0.284,0-0.516-0.23-0.516-0.516c0-0.284,0.231-0.515,0.516-0.515
	c0.285,0,0.515,0.23,0.515,0.515C20.67,4.663,20.44,4.894,20.155,4.894z M20.002,9.413c0.285,0,0.515,0.23,0.515,0.514
	c0,0.285-0.229,0.516-0.515,0.516c-0.284,0-0.515-0.23-0.515-0.516C19.487,9.644,19.718,9.413,20.002,9.413z M20.939,4.905
	c0-0.284,0.232-0.516,0.516-0.516c0.285,0,0.515,0.231,0.515,0.516S21.74,5.42,21.455,5.42C21.172,5.42,20.939,5.189,20.939,4.905z
	 M21.6,5.924c0.284,0,0.515,0.23,0.515,0.515s-0.23,0.516-0.515,0.516s-0.516-0.231-0.516-0.516S21.315,5.924,21.6,5.924z
	 M21.601,3.938c-0.285,0-0.517-0.23-0.517-0.515s0.231-0.516,0.517-0.516c0.283,0,0.514,0.231,0.514,0.516
	S21.884,3.938,21.601,3.938z M10.715,3.648c0,0.285-0.23,0.516-0.514,0.516c-0.285,0-0.517-0.23-0.517-0.516
	c0-0.284,0.231-0.515,0.517-0.515C10.484,3.134,10.715,3.364,10.715,3.648z M7.97,5.401c0,0.285-0.229,0.516-0.515,0.516
	c-0.284,0-0.515-0.23-0.515-0.516c0-0.283,0.23-0.515,0.515-0.515C7.74,4.887,7.97,5.118,7.97,5.401z M6.189,6.538
	c-0.285,0-0.516-0.231-0.516-0.517c0-0.283,0.23-0.514,0.516-0.514c0.283,0,0.514,0.23,0.514,0.514
	C6.703,6.307,6.473,6.538,6.189,6.538z M7.456,7.326c-0.284,0-0.516-0.23-0.516-0.517c0-0.283,0.231-0.514,0.516-0.514
	c0.285,0,0.515,0.23,0.515,0.514C7.971,7.096,7.741,7.326,7.456,7.326z M8.756,4.09c0.285,0,0.515,0.23,0.515,0.515
	S9.041,5.119,8.756,5.119c-0.284,0-0.516-0.23-0.516-0.515S8.472,4.09,8.756,4.09z M8.825,7.978c-0.283,0-0.514-0.23-0.514-0.516
	c0-0.283,0.23-0.515,0.514-0.515c0.285,0,0.517,0.231,0.517,0.515C9.342,7.747,9.11,7.978,8.825,7.978z M8.826,6.538
	c-0.284,0-0.515-0.231-0.515-0.516s0.23-0.515,0.515-0.515s0.516,0.23,0.516,0.515S9.11,6.538,8.826,6.538z M10.056,4.616
	c0.285,0,0.515,0.23,0.515,0.516c0,0.284-0.229,0.515-0.515,0.515c-0.283,0-0.516-0.23-0.516-0.515
	C9.54,4.847,9.772,4.616,10.056,4.616z M10.2,6.149c0.284,0,0.515,0.231,0.515,0.516S10.484,7.18,10.2,7.18s-0.516-0.23-0.516-0.515
	S9.916,6.149,10.2,6.149z M9.817,8.346c0-0.284,0.23-0.515,0.515-0.515c0.285,0,0.516,0.23,0.516,0.515
	c0,0.285-0.23,0.516-0.516,0.516C10.048,8.861,9.817,8.631,9.817,8.346z M21.732,8.635c-0.285,0-0.516-0.23-0.516-0.516
	c0-0.283,0.23-0.515,0.516-0.515c0.284,0,0.515,0.231,0.515,0.515C22.247,8.404,22.017,8.635,21.732,8.635z M22.956,7.604
	c-0.285,0-0.516-0.229-0.516-0.515c0-0.283,0.23-0.515,0.516-0.515c0.284,0,0.515,0.231,0.515,0.515
	C23.471,7.375,23.24,7.604,22.956,7.604z M22.955,6.165c-0.284,0-0.515-0.23-0.515-0.515s0.23-0.516,0.515-0.516
	c0.285,0,0.516,0.231,0.516,0.516S23.24,6.165,22.955,6.165z M23.026,4.747c-0.285,0-0.515-0.23-0.515-0.515
	s0.229-0.516,0.515-0.516c0.283,0,0.515,0.231,0.515,0.516S23.31,4.747,23.026,4.747z M24.326,6.954
	c-0.285,0-0.515-0.231-0.515-0.517c0-0.283,0.229-0.514,0.515-0.514c0.283,0,0.516,0.23,0.516,0.514
	C24.842,6.723,24.609,6.954,24.326,6.954z M24.327,5.545c-0.285,0-0.515-0.231-0.515-0.517c0-0.283,0.229-0.514,0.515-0.514
	c0.283,0,0.515,0.23,0.515,0.514C24.842,5.313,24.61,5.545,24.327,5.545z M25.593,6.165c-0.283,0-0.515-0.23-0.515-0.516
	c0-0.283,0.231-0.515,0.515-0.515c0.285,0,0.515,0.231,0.515,0.515C26.107,5.935,25.878,6.165,25.593,6.165z"/>
<g>
</g>
<g>
</g>
<g>
</g>
<g>
</g>
<g>
</g>
<g>
</g>
<g>
</g>
<g>
</g>
<g>
</g>
<g>
</g>
<g>
</g>
<g>
</g>
<g>
</g>
<g>
</g>
<g>
</g>
</svg>
