<?xml version="1.0" encoding="iso-8859-1"?>
<!-- Generator: Adobe Illustrator 16.0.0, SVG Export Plug-In . SVG Version: 6.00 Build 0)  -->
<!DOCTYPE svg PUBLIC "-//W3C//DTD SVG 1.1//EN" "http://www.w3.org/Graphics/SVG/1.1/DTD/svg11.dtd">
<svg version="1.1" id="Layer_1" xmlns="http://www.w3.org/2000/svg" xmlns:xlink="http://www.w3.org/1999/xlink" x="0px" y="0px"
	 width="32px" height="4.922px" viewBox="0 0 32 4.922" style="enable-background:new 0 0 32 4.922;" xml:space="preserve">
<path d="M31.307,0.003c-0.604-0.066-7.021,0.943-8.138,1.18C22.053,1.42,19.84,2.086,19.84,2.086l0.002,0.115l-0.357,0.024
	c0.094-0.158-0.015-0.278-0.182-0.299c-2.654,0-18.939,0-19.046,0c-0.117,0-0.331,0.041-0.231,0.37
	C0.104,2.552,0.452,4.183,0.61,4.463H0.354v0.459h0.318h17.854h0.433V4.463h-0.339c0.117-0.163,0.316-1.44,0.5-1.701l0.733-0.05
	l0.004,0.15c0,0,2.139-0.571,3.454-0.685c1.314-0.114,7.156-0.459,8.018-0.519S32.266,0.109,31.307,0.003z"/>
<g>
</g>
<g>
</g>
<g>
</g>
<g>
</g>
<g>
</g>
<g>
</g>
<g>
</g>
<g>
</g>
<g>
</g>
<g>
</g>
<g>
</g>
<g>
</g>
<g>
</g>
<g>
</g>
<g>
</g>
</svg>
