<?xml version="1.0" encoding="iso-8859-1"?>
<!-- Generator: Adobe Illustrator 16.0.0, SVG Export Plug-In . SVG Version: 6.00 Build 0)  -->
<!DOCTYPE svg PUBLIC "-//W3C//DTD SVG 1.1//EN" "http://www.w3.org/Graphics/SVG/1.1/DTD/svg11.dtd">
<svg version="1.1" id="Layer_1" xmlns="http://www.w3.org/2000/svg" xmlns:xlink="http://www.w3.org/1999/xlink" x="0px" y="0px"
	 width="32px" height="7.675px" viewBox="0 0 32 7.675" style="enable-background:new 0 0 32 7.675;" xml:space="preserve">
<path d="M29.306,0.631c-0.401,0.141-0.921,0.63-1.241,0.96c0-0.89,0-1.591,0-1.591H3.712c0,0,0,0.585,0,1.367
	c-0.31-0.297-0.7-0.625-1.017-0.736C2.075,0.41,0,0.631,0,0.631V1.47c0,0,2.038-0.072,2.477,0.184
	c0.422,0.244,0.876,2.241,1.235,2.394c0,0.449,0,0.829,0,1.055c0,1.021,0.976,2.573,2.839,2.573c1.358,0,4.079,0,5.456,0
	c0.511,0,0.843,0,0.843,0c1.377,0,11.018,0,12.377,0c1.862,0,2.838-1.553,2.838-2.573c0-0.224,0-0.598,0-1.039
	c0.07,0,0.134,0,0.183,0c0.364,0,0.839-2.154,1.277-2.409C29.963,1.397,32,1.47,32,1.47V0.631C32,0.631,29.926,0.41,29.306,0.631z
	 M6.659,6.488C6.555,6.491,6.458,6.428,6.326,6.369c-0.141-0.057-0.23-0.172-0.361-0.29C5.736,5.833,5.55,5.498,5.418,5.132
	C5.366,4.949,5.279,4.76,5.252,4.563C5.216,4.369,5.171,4.17,5.148,3.973C5.059,3.177,5.128,2.388,5.26,1.808
	c0.124-0.582,0.317-0.954,0.317-0.954s0.141,0.393,0.254,0.96c0.121,0.568,0.221,1.314,0.31,2.041
	c0.03,0.367,0.09,0.721,0.129,1.053c0.029,0.163,0.057,0.315,0.077,0.47c0.046,0.131,0.064,0.28,0.104,0.397
	c0.053,0.1,0.072,0.242,0.133,0.313c0.06,0.07,0.096,0.184,0.159,0.221c0.133,0.108,0.209,0.171,0.209,0.171
	S6.861,6.494,6.659,6.488z"/>
<g>
</g>
<g>
</g>
<g>
</g>
<g>
</g>
<g>
</g>
<g>
</g>
<g>
</g>
<g>
</g>
<g>
</g>
<g>
</g>
<g>
</g>
<g>
</g>
<g>
</g>
<g>
</g>
<g>
</g>
</svg>
