<?xml version="1.0" encoding="iso-8859-1"?>
<!-- Generator: Adobe Illustrator 16.0.0, SVG Export Plug-In . SVG Version: 6.00 Build 0)  -->
<!DOCTYPE svg PUBLIC "-//W3C//DTD SVG 1.1//EN" "http://www.w3.org/Graphics/SVG/1.1/DTD/svg11.dtd">
<svg version="1.1" id="Layer_1" xmlns="http://www.w3.org/2000/svg" xmlns:xlink="http://www.w3.org/1999/xlink" x="0px" y="0px"
	 width="27.77px" height="17.246px" viewBox="0 0 27.77 17.246" style="enable-background:new 0 0 27.77 17.246;"
	 xml:space="preserve">
<path d="M17.749,15.413c0-0.13,0-0.323,0-0.568c1.314-0.011,2.783-1.791,3.658-3.357c2.57-0.353,6.332-3.447,6.361-6.947
	c0.012-1.321-0.539-2.006-1.002-2.348c-0.918-0.679-2.168-0.544-3.098-0.321c0.027-0.725,0.023-1.37-0.004-1.871
	c-3.309,0-9.773,0-10.844,0c0,0-0.068,0-0.168,0C11.72,0,6.781,0,3.518,0C3.335,3.407,4.644,14.419,9.622,14.845
	c0,0.245,0,0.438,0,0.568H0v1.833h27.77v-1.833H17.749z M23.528,3.882c1.086-0.328,1.805-0.391,2.113-0.163
	c0.195,0.144,0.234,0.518,0.23,0.804c-0.016,1.943-1.857,3.79-3.436,4.63C23.024,7.42,23.354,5.553,23.528,3.882z M7.171,10.438
	c-1.084-2.5-1.865-9.281-1.865-9.281s2.198,6.094,2.698,7.781s2.69,4.084,2.69,4.084S8.254,12.938,7.171,10.438z"/>
<g>
</g>
<g>
</g>
<g>
</g>
<g>
</g>
<g>
</g>
<g>
</g>
<g>
</g>
<g>
</g>
<g>
</g>
<g>
</g>
<g>
</g>
<g>
</g>
<g>
</g>
<g>
</g>
<g>
</g>
</svg>
