<?xml version="1.0" encoding="iso-8859-1"?>
<!-- Generator: Adobe Illustrator 16.0.0, SVG Export Plug-In . SVG Version: 6.00 Build 0)  -->
<!DOCTYPE svg PUBLIC "-//W3C//DTD SVG 1.1//EN" "http://www.w3.org/Graphics/SVG/1.1/DTD/svg11.dtd">
<svg version="1.1" id="Layer_1" xmlns="http://www.w3.org/2000/svg" xmlns:xlink="http://www.w3.org/1999/xlink" x="0px" y="0px"
	 width="24.268px" height="15.585px" viewBox="0 0 24.268 15.585" style="enable-background:new 0 0 24.268 15.585;"
	 xml:space="preserve">
<path d="M23.266,2.192c-0.919-0.679-2.169-0.544-3.098-0.321c0.026-0.725,0.023-1.37-0.004-1.871C16.855,0,10.391,0,9.32,0
	c0,0-0.068,0-0.168,0C8.219,0,3.28,0,0.016,0C-0.166,3.407,1.142,14.419,6.12,14.845c0,0.444,0,0.74,0,0.74h3.031H9.32h4.928
	c0,0,0-0.296,0-0.74c1.313-0.011,2.782-1.791,3.658-3.357c2.569-0.353,6.331-3.447,6.361-6.947
	C24.278,3.219,23.729,2.534,23.266,2.192z M3.669,10.438c-1.083-2.5-1.865-9.281-1.865-9.281s2.198,6.094,2.698,7.781
	s2.691,4.084,2.691,4.084S4.752,12.938,3.669,10.438z M18.935,9.152c0.588-1.732,0.919-3.6,1.092-5.271
	c1.087-0.328,1.806-0.391,2.114-0.163c0.195,0.144,0.233,0.518,0.23,0.804C22.354,6.466,20.514,8.313,18.935,9.152z"/>
<g>
</g>
<g>
</g>
<g>
</g>
<g>
</g>
<g>
</g>
<g>
</g>
<g>
</g>
<g>
</g>
<g>
</g>
<g>
</g>
<g>
</g>
<g>
</g>
<g>
</g>
<g>
</g>
<g>
</g>
</svg>
