<?xml version="1.0" encoding="iso-8859-1"?>
<!-- Generator: Adobe Illustrator 16.0.0, SVG Export Plug-In . SVG Version: 6.00 Build 0)  -->
<!DOCTYPE svg PUBLIC "-//W3C//DTD SVG 1.1//EN" "http://www.w3.org/Graphics/SVG/1.1/DTD/svg11.dtd">
<svg version="1.1" id="Layer_1" xmlns="http://www.w3.org/2000/svg" xmlns:xlink="http://www.w3.org/1999/xlink" x="0px" y="0px"
	 width="30.791px" height="4.75px" viewBox="0 0 30.791 4.75" style="enable-background:new 0 0 30.791 4.75;" xml:space="preserve"
	>
<path d="M22.695,2.543c0.555-0.617,1.089-1.154,1.534-1.154c1.05,0,4.536,0,4.536,0V0L2.025,0.078v1.388
	c0,0,4.044-0.077,4.941-0.077c0.381,0,0.844,0.537,1.316,1.154H0v1.256c0,0,6.011,0,6.235,0S7.363,4.75,7.363,4.75h16.334
	c0,0,1.032-0.951,1.287-0.951c0.256,0,5.807,0,5.807,0V2.543H22.695z"/>
<g>
</g>
<g>
</g>
<g>
</g>
<g>
</g>
<g>
</g>
<g>
</g>
<g>
</g>
<g>
</g>
<g>
</g>
<g>
</g>
<g>
</g>
<g>
</g>
<g>
</g>
<g>
</g>
<g>
</g>
</svg>
